<svg xmlns="http://www.w3.org/2000/svg" viewBox="0 0 340 90" width="680" height="180">
  <defs>
    <linearGradient id="grad" x1="0%" y1="0%" x2="100%" y2="100%">
      <stop offset="0%" stop-color="#8E7CFF" />
      <stop offset="100%" stop-color="#00C3FF" />
    </linearGradient>
  </defs>
  <rect x="10" y="10" width="70" height="70" rx="20" fill="url(#grad)" />
  <path d="M30,37 C28,37 26,39 26,42 C26,46 27,51 29,54 C30.5,56 33,56 35,54 L38,50 L52,50 L55,54 C57,56 59.5,56 61,54 C63,51 64,46 64,42 C64,39 62,37 60,37 Z" fill="#3D366F" />
  <path d="M32,45 h4 v2 h-4 z M33,44 h2 v4 h-2 z" fill="#2A2452" />
  <circle cx="55" cy="46" r="1.5" fill="#FF4B4B" />
  <circle cx="59" cy="46" r="1.5" fill="#FFD43F" />
  <circle cx="57" cy="44" r="1.5" fill="#2CD46B" />
  <circle cx="57" cy="48" r="1.5" fill="#4BA3FF" />
  <text x="96" y="58" font-family="'Inter', 'Segoe UI', system-ui, sans-serif" font-size="40px" font-weight="800" fill="#00D5F7" letter-spacing="-0.5px">PlayVerse</text>
</svg>
